Coordinates
version=1
nRows=23
nColumns=38
inDegrees=no

Units are S.I. units (second, meters, Newtons, ...)
If the header above contains a line with 'inDegrees', this indicates whether rotational values are in degrees (yes) or radians (no).

endheader
time	pelvis_tilt	pelvis_list	pelvis_rotation	pelvis_tx	pelvis_ty	pelvis_tz	hip_flexion_r	hip_adduction_r	hip_rotation_r	knee_angle_r	ankle_angle_r	subtalar_angle_r	mtp_angle_r	hip_flexion_l	hip_adduction_l	hip_rotation_l	knee_angle_l	ankle_angle_l	subtalar_angle_l	mtp_angle_l	lumbar_extension	lumbar_bending	lumbar_rotation	arm_flex_r	arm_add_r	arm_rot_r	elbow_flex_r	pro_sup_r	wrist_flex_r	wrist_dev_r	arm_flex_l	arm_add_l	arm_rot_l	elbow_flex_l	pro_sup_l	wrist_flex_l	wrist_dev_l
2.72751	-0.207621	0.0585045	-2.99768	-0.338025	0.956891	-0.0484162	0.170149	0.082422	-0.227178	0.510441	0.131747	0	0	-0.0483126	-0.205526	-0.0416905	1.18531	-0.297392	0	0	-0.414129	0.143987	-0.115501	0.259681	-0.297496	1.57049	0.371516	0.0037692	0	0	0.537089	-0.319334	1.43088	0.579067	0.221532	0	0
2.7375	-0.207763	0.0544048	-3.0008	-0.337051	0.960042	-0.0498714	0.146465	0.0846697	-0.220576	0.494223	0.139092	0	0	-0.0177636	-0.199628	-0.0419764	1.20769	-0.282842	0	0	-0.416298	0.136999	-0.109418	0.2871	-0.288807	1.5706	0.376505	0.0107307	0	0	0.516185	-0.307724	1.46929	0.55152	0.17298	0	0
2.74749	-0.207416	0.049381	-3.00476	-0.336007	0.963202	-0.0513541	0.122597	0.0858644	-0.212837	0.476525	0.145174	0	0	0.0118484	-0.192236	-0.0435628	1.22435	-0.264667	0	0	-0.418139	0.12874	-0.104126	0.31554	-0.279897	1.57079	0.381814	0.0202931	0	0	0.492714	-0.297898	1.5019	0.526652	0.128879	0	0
2.75748	-0.206743	0.0435931	-3.00963	-0.334901	0.966319	-0.0528676	0.0985625	0.0861111	-0.204019	0.457674	0.150153	0	0	0.0402457	-0.183706	-0.046708	1.23523	-0.244252	0	0	-0.419823	0.119373	-0.0994301	0.344903	-0.270885	1.57109	0.387623	0.0327344	0	0	0.466847	-0.289908	1.52822	0.504664	0.0906352	0	0
2.76747	-0.205921	0.0372258	-3.01539	-0.33374	0.969339	-0.0544096	0.074362	0.0855377	-0.194246	0.437984	0.154224	0	0	0.0671947	-0.174402	-0.0515317	1.24039	-0.222671	0	0	-0.421511	0.109103	-0.0951154	0.375067	-0.261919	1.57153	0.39413	0.0481305	0	0	0.438905	-0.283673	1.54843	0.485521	0.0589879	0	0
2.77746	-0.205122	0.0304779	-3.02198	-0.332527	0.972211	-0.0559726	0.0499887	0.0842867	-0.1837	0.417759	0.157605	0	0	0.092511	-0.164673	-0.0580237	1.23996	-0.20069	0	0	-0.423351	0.0981616	-0.0909835	0.405901	-0.25316	1.57213	0.401548	0.066279	0	0	0.409297	-0.279023	1.56311	0.469031	0.0340764	0	0
2.78745	-0.204501	0.0235539	-3.02928	-0.331266	0.974884	-0.057546	0.0254451	0.0825117	-0.172595	0.397293	0.160521	0	0	0.116065	-0.154839	-0.0660685	1.23416	-0.178819	0	0	-0.425461	0.086797	-0.0868569	0.437265	-0.244778	1.57289	0.410081	0.0866972	0	0	0.378467	-0.275734	1.5731	0.454901	0.0154526	0	0
2.79744	-0.204182	0.0166566	-3.03715	-0.329962	0.977314	-0.0591168	0.000746391	0.0803748	-0.161155	0.376861	0.163198	0	0	0.137777	-0.14518	-0.0754731	1.22321	-0.157373	0	0	-0.427926	0.0752614	-0.0825783	0.46901	-0.236948	1.57383	0.419905	0.1088	0	0	0.34686	-0.273563	1.57929	0.442786	0.00232899	0	0
2.80743	-0.204263	0.00997967	-3.04541	-0.328616	0.979458	-0.0606701	-0.0240821	0.078041	-0.149602	0.35671	0.165845	0	0	0.157613	-0.135931	-0.0859909	1.20736	-0.136562	0	0	-0.430803	0.0638028	-0.0780052	0.500976	-0.229853	1.57492	0.43117	0.131971	0	0	0.314901	-0.27226	1.58257	0.432325	-0.00623612	0	0
2.81742	-0.204816	0.0037022	-3.05389	-0.32723	0.981285	-0.062188	-0.0490181	0.0756764	-0.138147	0.337043	0.168642	0	0	0.175572	-0.127275	-0.0973399	1.18688	-0.116554	0	0	-0.434136	0.0526631	-0.0730121	0.533004	-0.223682	1.57611	0.443994	0.155632	0	0	0.282989	-0.271597	1.58372	0.423183	-0.0112075	0	0
2.82742	-0.205898	-0.0020176	-3.06236	-0.325802	0.98277	-0.0636491	-0.0740565	0.0734449	-0.126998	0.317996	0.171741	0	0	0.191675	-0.119338	-0.109205	1.16199	-0.0975146	0	0	-0.437958	0.0420774	-0.0675067	0.564928	-0.218632	1.57731	0.458462	0.179302	0	0	0.251486	-0.271375	1.58343	0.415069	-0.0134877	0	0
2.83741	-0.207526	-0.00705607	-3.07057	-0.324339	0.983895	-0.0650268	-0.0992023	0.071496	-0.116381	0.299643	0.175271	0	0	0.205977	-0.112174	-0.121231	1.13292	-0.0796141	0	0	-0.442258	0.0322644	-0.0614623	0.596555	-0.214887	1.57838	0.474618	0.202616	0	0	0.220694	-0.271438	1.58223	0.407748	-0.0138678	0	0
2.8474	-0.209677	-0.0113306	-3.07823	-0.322848	0.98465	-0.0662945	-0.124444	0.0699566	-0.106505	0.282017	0.179346	0	0	0.218568	-0.105774	-0.133069	1.09987	-0.0630202	0	0	-0.446977	0.0234041	-0.0548908	0.627668	-0.212614	1.57911	0.492461	0.225355	0	0	0.19086	-0.271681	1.58056	0.401049	-0.0130043	0	0
2.85739	-0.212283	-0.0148023	-3.08512	-0.32134	0.985028	-0.0674294	-0.149737	0.0689246	-0.0975274	0.265132	0.184057	0	0	0.229566	-0.100073	-0.144421	1.06304	-0.0478775	0	0	-0.45202	0.0156194	-0.0478138	0.658027	-0.211961	1.57921	0.511952	0.247442	0	0	0.162177	-0.272053	1.57871	0.394863	-0.0114158	0	0
2.86738	-0.215248	-0.0174725	-3.09105	-0.319827	0.985029	-0.0684148	-0.175008	0.0684679	-0.0895457	0.249007	0.189472	0	0	0.239097	-0.0949706	-0.155054	1.02259	-0.0342913	0	0	-0.457268	0.00897402	-0.040254	0.687379	-0.213045	1.57831	0.533016	0.268929	0	0	0.134795	-0.272546	1.5769	0.389129	-0.00949089	0	0
2.87737	-0.218476	-0.0193707	-3.09587	-0.318327	0.984661	-0.0692394	-0.200175	0.0686316	-0.0826238	0.233678	0.195603	0	0	0.247268	-0.0903426	-0.164787	0.978694	-0.0223244	0	0	-0.462607	0.00348785	-0.032239	0.715456	-0.215951	1.57597	0.555556	0.28998	0	0	0.108812	-0.273184	1.57525	0.383817	-0.00750487	0	0
2.88736	-0.221869	-0.0205533	-3.09951	-0.316856	0.983937	-0.0698959	-0.225155	0.0694329	-0.0767844	0.219186	0.202427	0	0	0.25417	-0.0860433	-0.173481	0.931539	-0.0120011	0	0	-0.467935	-0.000860895	-0.0238022	0.741987	-0.220732	1.57165	0.579455	0.310846	0	0	0.0842895	-0.274008	1.57385	0.378906	-0.00563822	0	0
2.89735	-0.22533	-0.0211043	-3.1019	-0.315435	0.982879	-0.0703809	-0.249858	0.0708526	-0.0720049	0.205573	0.20991	0	0	0.259892	-0.0819062	-0.181029	0.881327	-0.00329614	0	0	-0.473151	-0.00413913	-0.0149807	0.766694	-0.227404	1.56479	0.604575	0.331828	0	0	0.0612497	-0.275066	1.57271	0.374382	-0.00399672	0	0
2.90734	-0.228756	-0.0211306	-3.10307	-0.314084	0.981509	-0.0706946	-0.274177	0.072834	-0.0682375	0.192889	0.218021	0	0	0.264531	-0.0777526	-0.187348	0.828313	0.00388521	0	0	-0.478156	-0.00645806	-0.00581028	0.789306	-0.235942	1.55478	0.630757	0.353239	0	0	0.0396897	-0.276412	1.57183	0.370237	-0.00262998	0	0
2.91733	-0.232042	-0.0207533	-3.10307	-0.312822	0.979855	-0.0708412	-0.297994	0.0752892	-0.0654216	0.181197	0.226725	0	0	0.268198	-0.0734058	-0.19236	0.772828	0.00972852	0	0	-0.482857	-0.00796367	0.00367405	0.809573	-0.24627	1.54112	0.657814	0.375357	0	0	0.0195852	-0.278095	1.57118	0.366459	-0.00154776	0	0
2.92732	-0.235093	-0.0200955	-3.102	-0.311665	0.977947	-0.0708285	-0.321184	0.0781106	-0.063488	0.170562	0.235967	0	0	0.271022	-0.0687097	-0.19599	0.715301	0.0145251	0	0	-0.487169	-0.00882323	0.0134383	0.827293	-0.258256	1.52342	0.685517	0.398375	0	0	0.000896792	-0.280152	1.57074	0.363026	-0.000733632	0	0
2.93732	-0.237823	-0.019276	-3.09999	-0.310628	0.975816	-0.0706672	-0.343634	0.0811771	-0.0623595	0.161042	0.245667	0	0	0.27314	-0.0635376	-0.19814	0.656277	0.0186608	0	0	-0.491027	-0.00921421	0.0234439	0.842337	-0.271702	1.50163	0.713581	0.422364	0	0	-0.0164271	-0.2826	1.57046	0.359911	-0.000155751	0	0
2.94731	-0.240167	-0.0184057	-3.09721	-0.309721	0.973498	-0.0703706	-0.365239	0.0843572	-0.0619499	0.152692	0.255715	0	0	0.274704	-0.0577951	-0.19867	0.59643	0.0225841	0	0	-0.494379	-0.00931435	0.0336353	0.854685	-0.286324	1.47613	0.741638	0.447202	0	0	-0.0324538	-0.285439	1.57031	0.357073	0.000225046	0	0
